<?xml version="1.0" standalone="no"?>
<!DOCTYPE svg PUBLIC "-//W3C//DTD SVG 20010904//EN"
 "http://www.w3.org/TR/2001/REC-SVG-20010904/DTD/svg10.dtd">
<svg version="1.0" xmlns="http://www.w3.org/2000/svg"
 width="1080.000000pt" height="1180.000000pt" viewBox="0 0 1080.000000 1180.000000"
 preserveAspectRatio="xMidYMid meet">

<g transform="translate(0.000000,1180.000000) scale(0.100000,-0.100000)"
fill="#ffffff" stroke="none">
<path d="M6200 11529 c-653 -508 -1173 -1065 -1530 -1639 -116 -187 -285 -542
-315 -663 -10 -37 -20 -34 -38 11 -61 151 -66 358 -17 586 26 118 26 127 -2
96 -122 -135 -239 -339 -303 -525 -69 -204 -115 -482 -115 -694 0 -111 -1
-114 -19 -97 -30 27 -79 145 -92 221 -7 39 -12 153 -11 258 0 105 -3 185 -8
182 -26 -16 -124 -183 -160 -273 -52 -129 -77 -244 -89 -410 -16 -208 12 -500
65 -684 10 -34 -24 -18 -78 37 -59 58 -110 150 -149 270 l-23 70 -7 -50 c-4
-27 -8 -122 -8 -210 -2 -253 37 -504 115 -748 25 -78 52 -155 59 -172 8 -16
32 -70 54 -118 38 -83 39 -88 18 -82 -83 25 -190 118 -259 225 -26 41 -48 68
-48 60 0 -61 91 -511 134 -665 156 -556 373 -985 683 -1356 88 -106 260 -271
356 -343 75 -57 233 -156 248 -156 10 0 11 2 116 255 41 99 102 245 135 325
33 80 80 192 103 250 24 58 73 177 110 265 96 231 98 236 83 251 -12 11 -112
74 -362 226 l-79 48 39 1 c105 3 419 35 417 43 -1 5 -30 17 -65 27 -123 33
-389 156 -531 246 -23 14 -60 38 -82 52 -98 62 -285 194 -281 199 5 4 121 -26
262 -68 58 -17 318 -71 504 -104 194 -34 572 -71 935 -91 609 -33 685 -42 775
-88 92 -46 128 -188 117 -462 -7 -153 -28 -347 -50 -444 l-12 -54 -92 174
c-51 96 -98 182 -105 191 -12 15 -31 16 -218 6 -113 -6 -209 -15 -215 -20 -6
-5 -6 -15 2 -26 6 -10 41 -77 78 -148 37 -71 89 -169 115 -219 26 -49 89 -171
140 -270 78 -151 208 -399 278 -533 9 -17 21 -32 26 -32 5 0 62 53 126 118
398 401 649 948 721 1572 18 157 16 536 -5 714 -9 83 -19 153 -22 158 -8 13
-24 -1 -24 -21 0 -39 -62 -141 -116 -191 -56 -50 -141 -106 -149 -98 -3 3 4
40 16 84 27 104 36 340 19 495 -19 178 -78 392 -161 591 -44 105 -133 294
-145 307 -12 13 -10 -13 6 -83 40 -168 34 -311 -19 -431 -20 -45 -41 -60 -41
-29 0 36 -65 207 -129 340 -70 145 -122 235 -223 388 -135 203 -400 538 -415
523 -2 -3 7 -47 21 -99 55 -205 59 -392 10 -454 -13 -18 -17 -16 -65 36 -100
109 -209 299 -263 460 -49 148 -70 282 -70 450 0 219 36 407 119 620 24 62 43
116 40 118 -8 8 -138 -91 -213 -162 -79 -76 -184 -210 -250 -321 -90 -151
-170 -379 -208 -590 l-18 -100 -13 60 c-16 75 -17 333 -3 440 19 137 70 365
107 480 155 484 446 1003 876 1563 23 30 -16 6 -113 -69z m-1355 -4179 c214
-89 516 -191 800 -270 188 -52 606 -156 703 -175 51 -10 91 -20 89 -21 -6 -6
-242 23 -537 66 -276 40 -649 111 -705 135 -36 14 -475 303 -475 311 0 3 6 4
13 1 6 -3 57 -24 112 -47z m-375 -267 c476 -140 1148 -262 1910 -348 l215 -24
-320 5 c-583 8 -998 31 -1265 70 -198 29 -465 139 -725 302 -176 109 -185 118
-85 81 47 -17 168 -56 270 -86z"/>
<path d="M7178 4605 c-88 -32 -192 -132 -217 -207 -13 -41 -39 -182 -177 -972
-35 -204 -43 -186 76 -186 95 0 100 1 105 23 3 12 23 128 44 257 81 481 130
756 141 802 14 55 45 87 91 94 41 7 89 -25 89 -59 0 -12 -15 -112 -34 -222
-19 -110 -53 -308 -75 -440 -23 -132 -48 -271 -56 -310 -7 -38 -17 -87 -20
-107 l-6 -38 106 0 c58 0 105 3 105 8 0 4 12 72 25 152 14 80 45 260 70 400
93 545 95 552 124 583 16 16 42 30 63 33 31 5 41 2 64 -21 31 -31 34 6 -31
-370 -25 -143 -63 -363 -85 -490 -21 -126 -42 -245 -46 -263 l-7 -33 104 3
104 3 17 95 c17 95 80 453 144 825 22 123 33 216 30 243 -10 76 -53 139 -131
187 -21 13 -55 20 -110 23 -76 4 -83 2 -149 -32 -69 -36 -69 -36 -90 -17 -53
49 -184 67 -268 36z"/>
<path d="M3636 4602 c-5 -9 -50 -143 -191 -577 -59 -181 -140 -431 -181 -553
-41 -123 -74 -226 -74 -228 0 -2 46 -4 103 -4 l103 0 40 143 40 142 73 3 73 3
-7 -133 c-4 -73 -8 -137 -9 -143 0 -6 40 -11 100 -13 l102 -3 6 183 c10 302
26 996 26 1096 l0 92 -99 0 c-55 0 -102 -3 -105 -8z m20 -641 c-9 -99 -16
-191 -16 -205 0 -24 -3 -26 -50 -26 -27 0 -50 4 -50 9 0 16 41 176 83 326 51
181 56 164 33 -104z"/>
<path d="M4096 4583 c-3 -15 -19 -111 -36 -213 -17 -102 -33 -192 -35 -200 -3
-8 -25 -134 -49 -280 -25 -146 -59 -341 -75 -435 -17 -93 -31 -180 -31 -192 0
-22 3 -23 99 -23 l99 0 6 33 c4 17 20 113 37 212 16 99 32 192 35 206 5 25 8
26 87 32 48 3 106 14 139 27 70 26 158 103 187 163 30 62 84 345 85 448 1 82
-1 88 -33 136 -19 27 -55 63 -80 79 l-46 29 -192 3 -191 3 -6 -28z m298 -183
c49 -18 51 -38 21 -221 -31 -185 -46 -222 -100 -245 -36 -15 -125 -20 -125 -6
0 5 40 238 77 450 5 31 7 32 54 32 26 0 59 -4 73 -10z"/>
<path d="M4745 4600 c-4 -6 -26 -124 -50 -263 -24 -139 -66 -385 -95 -547 -81
-458 -90 -514 -90 -533 0 -16 10 -17 102 -15 99 3 101 3 105 28 2 14 19 118
38 232 19 113 35 209 35 212 0 3 20 6 44 6 l43 0 7 -172 c4 -95 9 -203 13
-240 l6 -68 103 0 c104 0 104 0 104 24 0 33 -19 420 -23 473 -4 39 0 46 47 95
78 81 90 114 137 383 32 185 22 251 -52 324 -63 63 -93 71 -291 71 -113 0
-179 -4 -183 -10z m289 -200 c48 -18 50 -42 21 -220 -29 -177 -30 -183 -69
-220 -21 -19 -40 -25 -91 -28 -36 -2 -65 -3 -65 -1 0 4 50 290 73 417 l11 62
47 0 c26 0 59 -4 73 -10z"/>
<path d="M5521 4353 c-46 -142 -107 -330 -136 -418 -120 -364 -225 -686 -225
-690 0 -3 47 -5 103 -5 l104 0 39 145 39 145 73 0 74 0 -7 -117 c-4 -65 -8
-129 -9 -143 -1 -25 0 -25 97 -28 73 -2 98 1 101 10 4 12 13 331 32 1106 l6
252 -104 0 -103 0 -84 -257z m105 -358 c-9 -115 -16 -221 -16 -237 0 -27 -1
-28 -54 -28 l-53 0 47 183 c52 199 81 299 87 293 2 -2 -3 -97 -11 -211z"/>
<path d="M6055 4598 c-6 -22 -25 -143 -25 -166 0 -21 4 -22 94 -22 l93 0 -18
-102 c-18 -95 -51 -282 -147 -842 -27 -153 -35 -219 -27 -222 6 -3 52 -4 101
-2 l89 3 12 60 c7 33 28 155 48 270 19 116 44 255 55 310 11 55 31 172 45 260
14 88 30 184 36 213 l10 52 99 0 98 0 11 68 c7 37 14 82 17 100 l6 32 -296 0
c-229 0 -298 -3 -301 -12z"/>
<path d="M6700 4608 c0 -2 -16 -95 -36 -208 -160 -916 -194 -1114 -194 -1137
0 -22 3 -23 99 -23 l99 0 5 28 c3 15 25 144 50 287 114 655 148 847 165 942
11 56 17 105 14 108 -5 5 -202 8 -202 3z"/>
<path d="M4635 3147 c-135 -45 -234 -142 -271 -264 -11 -37 -12 -48 -2 -55 7
-4 62 -8 122 -7 l109 1 37 39 c40 43 71 49 108 23 14 -9 22 -26 22 -43 0 -23
-452 -959 -552 -1144 -18 -34 -47 -189 -48 -255 l0 -22 333 2 332 3 12 90 c6
50 12 105 12 123 l1 32 -190 0 c-104 0 -190 2 -190 5 0 3 27 58 59 122 186
372 460 934 472 968 20 60 17 192 -5 235 -56 106 -124 150 -245 156 -47 2 -91
-1 -116 -9z"/>
<path d="M5390 3151 c-142 -49 -232 -135 -275 -262 -8 -24 -33 -179 -55 -344
-22 -165 -45 -325 -50 -355 -5 -30 -23 -157 -39 -281 -37 -287 -31 -327 55
-419 63 -67 109 -84 222 -78 107 5 173 33 256 109 70 64 99 134 121 294 9 66
29 215 45 330 94 667 102 740 90 799 -15 72 -68 141 -140 180 -44 24 -69 30
-130 33 -41 1 -86 -1 -100 -6z m101 -269 l22 -19 -17 -134 c-9 -74 -24 -172
-31 -219 -8 -47 -30 -206 -50 -355 -46 -350 -63 -446 -82 -467 -35 -39 -117
-29 -128 15 -4 13 12 149 34 303 22 153 54 380 71 504 38 282 39 288 51 327
19 60 84 82 130 45z"/>
<path d="M3365 3138 c-2 -7 -11 -80 -20 -163 -9 -82 -27 -235 -40 -340 -13
-104 -34 -273 -45 -375 -11 -102 -34 -295 -50 -430 -17 -135 -34 -276 -39
-315 -5 -38 -6 -73 -2 -78 4 -4 200 -6 437 -5 l429 3 7 50 c13 84 56 462 93
805 33 303 77 704 90 813 l6 47 -431 0 c-336 0 -432 -3 -435 -12z"/>
<path d="M6643 3140 c-58 -13 -140 -60 -188 -108 -81 -80 -102 -141 -135 -391
-29 -220 -29 -280 0 -342 11 -24 8 -33 -28 -93 -22 -36 -42 -81 -46 -99 -13
-74 -56 -408 -56 -440 0 -68 31 -139 85 -192 59 -60 101 -75 208 -75 115 0
175 26 263 114 85 85 93 106 130 336 33 205 36 320 11 375 l-18 41 36 59 c45
75 50 96 80 307 28 197 31 294 11 343 -22 53 -91 120 -147 145 -54 23 -150 32
-206 20z m100 -269 c6 -6 9 -30 9 -53 -4 -85 -51 -360 -66 -382 -16 -25 -61
-37 -94 -25 -42 16 -44 39 -22 207 12 86 25 174 31 194 13 51 54 81 98 74 19
-3 39 -10 44 -15z m-104 -746 c13 -13 13 -28 3 -102 -30 -225 -44 -310 -55
-333 -17 -35 -76 -49 -111 -26 -32 21 -32 25 -4 246 21 173 22 175 55 209 29
29 38 32 66 27 17 -4 38 -13 46 -21z"/>
<path d="M7230 3145 c0 -14 -43 -385 -65 -555 -13 -107 -34 -280 -45 -385 -11
-104 -27 -237 -35 -295 -33 -235 -56 -463 -47 -472 4 -4 201 -7 438 -6 l429 3
12 115 c7 63 21 189 33 280 11 91 34 296 50 455 17 160 34 322 40 360 15 107
50 440 50 474 l0 31 -430 0 c-236 0 -430 -2 -430 -5z"/>
<path d="M6030 3100 c-16 -38 -54 -66 -122 -89 l-53 -18 -18 -132 c-10 -73
-16 -135 -13 -138 3 -3 35 6 71 21 82 33 97 33 90 4 -2 -13 -21 -142 -40 -288
-20 -146 -40 -292 -45 -325 -5 -33 -21 -148 -35 -255 -14 -107 -32 -235 -40
-285 -8 -49 -17 -109 -20 -133 l-7 -43 129 3 128 3 27 195 c15 107 37 260 48
340 11 80 40 289 65 465 24 176 53 381 64 455 11 74 23 161 26 193 l7 57 -125
0 -125 0 -12 -30z"/>
<path d="M8058 1644 c-15 -8 -35 -28 -43 -44 -43 -84 15 -170 115 -170 91 0
147 89 105 169 -27 54 -119 77 -177 45z m135 -45 c21 -26 22 -78 2 -105 -16
-21 -15 -22 -19 71 -1 29 -2 30 -50 30 l-49 0 -3 -45 c-2 -25 1 -51 5 -59 11
-18 31 -5 31 20 0 28 23 23 42 -10 18 -33 15 -41 -19 -41 -38 0 -80 27 -91 58
-12 36 8 88 40 102 34 14 91 4 111 -21z m-53 -29 c0 -5 -7 -10 -15 -10 -8 0
-15 5 -15 10 0 6 7 10 15 10 8 0 15 -4 15 -10z"/>
</g>
</svg>
