<svg viewBox="0 0 512 512" xmlns="http://www.w3.org/2000/svg"><path d="m400.066406 439.589844c-32.402344-21.59375-74.238281-21.59375-106.640625 0-22.292969 14.851562-51.0625 14.851562-73.359375 0-32.402344-21.59375-74.238281-21.59375-106.640625 0-22.292969 14.851562-51.0625 14.851562-73.359375 0-13.203125-8.8125-24-10.960938-40.066406-17.566406v89.976562h512v-89.886719c-17.179688 7.414063-25.398438 9.390625-37.574219 17.476563-22.292969 14.851562-52.0625 14.851562-74.359375 0zm0 0"/><path d="m0 361h106v48.417969c18.4375-10.183594 38.882812-15.835938 60-15.960938v-32.457031h180v32.457031c.25-.003906.496094-.054687.746094-.054687 20.804687 0 40.984375 5.398437 59.253906 15.167968v-47.570312h106v-60h-512zm0 0"/><path d="m406 91v-91h-60v91c0 49.628906-40.371094 90-90 90s-90-40.371094-90-90v-91h-60v91c0 49.628906-41.371094 90-91 90h-15v90h30v-61.515625c29.863281-3.785156 57.128906-18.351563 76-39.957031v101.472656h60v-101.472656c18.871094 21.605468 45.136719 36.171875 75 39.957031v61.515625h30v-61.515625c29.863281-3.785156 56.128906-18.351563 75-39.957031v101.472656h60v-101.472656c18.871094 21.605468 46.136719 36.171875 76 39.957031v61.515625h30v-90h-15c-49.628906 0-91-40.371094-91-90zm0 0"/></svg>