<svg xmlns="http://www.w3.org/2000/svg" viewBox="-68 0 512 512"><path d="m66.011719 68.28125c5.015625 16.527344 19.992187 27.636719 37.265625 27.636719h169.363281c17.273437 0 32.25-11.109375 37.269531-27.636719l9.839844-32.421875c2.582031-8.507813 1.023438-17.484375-4.269531-24.621094-5.296875-7.144531-13.429688-11.238281-22.320313-11.238281h-210.398437c-8.894531 0-17.027344 4.097656-22.324219 11.238281-5.292969 7.140625-6.847656 16.113281-4.269531 24.621094zm224.15625-38.273438-8.972657 29.558594c-1.152343 3.792969-4.589843 6.34375-8.554687 6.34375h-169.363281c-3.964844 0-7.402344-2.550781-8.554688-6.34375l-8.96875-29.558594zm0 0"/><path d="m370.222656 237.554688-47.398437-95.175782c-9.25-18.574218-27.882813-30.109375-48.632813-30.109375h-172.460937c-20.75 0-39.382813 11.535157-48.632813 30.109375l-47.398437 95.179688c-7.976563 16.015625-7.558594 34.917968 1.117187 50.566406l108.628906 195.890625c9.570313 17.261719 27.777344 27.984375 47.515626 27.984375h50c19.738281 0 37.945312-10.722656 47.515624-27.984375l108.628907-195.890625c8.675781-15.648438 9.09375-34.550781 1.117187-50.570312zm-182.261718 64.292968c-10.207032 0-18.511719-8.304687-18.511719-18.511718 0-10.207032 8.304687-18.511719 18.511719-18.511719 10.207031 0 18.511718 8.304687 18.511718 18.511719 0 10.207031-8.300781 18.511718-18.511718 18.511718zm154.902343-28.277344-108.628906 195.894532c-4.285156 7.726562-12.4375 12.527344-21.273437 12.527344h-9.996094v-152.523438c19.429687-6.335938 33.515625-24.617188 33.515625-46.132812 0-26.753907-21.765625-48.515626-48.519531-48.515626-26.753907 0-48.515626 21.765626-48.515626 48.515626 0 21.515624 14.082032 39.796874 33.511719 46.132812v152.523438h-9.996093c-8.835938 0-16.988282-4.800782-21.273438-12.527344l-108.628906-195.894532c-3.882813-7.003906-4.070313-15.46875-.5-22.636718l47.398437-95.175782c4.140625-8.316406 12.484375-13.480468 21.773438-13.480468h172.460937c9.289063 0 17.632813 5.164062 21.777344 13.480468l47.394531 95.175782c3.570313 7.167968 3.382813 15.632812-.5 22.636718zm0 0"/></svg>